<svg width="46" height="25" viewBox="0 0 46 25" fill="none" xmlns="http://www.w3.org/2000/svg">
<mask id="mask0_166_3" style="mask-type:alpha" maskUnits="userSpaceOnUse" x="0" y="0" width="45" height="25">
<path d="M18.5301 0.347745C19.1495 0.347745 19.6199 0.905095 19.5159 1.51569L19.0569 4.20971C18.975 4.69027 18.5586 5.04176 18.0711 5.04176H13.2521C12.7669 5.04176 12.3516 5.39017 12.2673 5.86808L9.08175 23.9303C8.99747 24.4082 8.58223 24.7566 8.09695 24.7566H4.18206C3.56031 24.7566 3.08927 24.1953 3.19726 23.583L6.26031 6.21545C6.36831 5.60314 5.89727 5.04176 5.27551 5.04176H1.19346C0.571142 5.04176 0.099969 4.47944 0.208895 3.86673L0.687831 1.17271C0.772681 0.695431 1.18763 0.347745 1.67239 0.347745H18.5301Z" fill="white"/>
<path d="M20.5792 12.5174C20.9964 10.1067 21.8889 7.96249 23.2565 6.08488C24.6473 4.18409 26.3743 2.71214 28.4373 1.66902C30.5004 0.602728 32.7373 0.0695801 35.148 0.0695801C38.0687 0.0695801 40.41 0.77658 42.1717 2.19058C43.6965 3.39855 44.6292 5.00407 44.9698 7.00715C45.0666 7.57671 44.6032 8.0668 44.0255 8.0668H39.2509C38.8329 8.0668 38.4717 7.79824 38.2539 7.44146C37.943 6.93216 37.5104 6.52632 36.9561 6.22396C36.2143 5.78353 35.2987 5.56332 34.2092 5.56332C32.2852 5.56332 30.6279 6.20078 29.237 7.4757C27.8694 8.72744 27.0001 10.408 26.6292 12.5174C26.5133 13.2128 26.4554 13.8155 26.4554 14.3255C26.4554 16.0408 26.9538 17.3621 27.9505 18.2893C28.9473 19.2165 30.3613 19.6802 32.1925 19.6802C33.6761 19.6802 34.9858 19.3093 36.1216 18.5675C36.848 18.0783 37.4843 17.4611 38.0306 16.7159C38.4701 16.1164 37.9938 15.3338 37.2504 15.3338H32.54C31.9216 15.3338 31.4514 14.7781 31.5539 14.1682L31.948 11.8218C32.029 11.3402 32.4459 10.9875 32.9342 10.9875H43.8314C44.453 10.9875 44.924 11.5487 44.8162 12.161L44.0723 16.3853C44.057 16.4721 44.0305 16.5565 43.9923 16.636C43.2998 18.074 42.3221 19.4132 41.059 20.6537C39.7841 21.9286 38.2658 22.9602 36.5041 23.7483C34.7424 24.5364 32.8416 24.9305 30.8017 24.9305C28.6923 24.9305 26.8379 24.5248 25.2384 23.7135C23.6622 22.879 22.4452 21.72 21.5875 20.2365C20.753 18.7529 20.3358 17.026 20.3358 15.0557C20.3358 14.3834 20.4169 13.5374 20.5792 12.5174Z" fill="white"/>
</mask>
<g mask="url(#mask0_166_3)">
<rect x="-21.2906" y="-20" width="101.129" height="49.105" transform="rotate(15 -21.2906 -20)" fill="url(#paint0_linear_166_3)"/>
</g>
<defs>
<linearGradient id="paint0_linear_166_3" x1="29.035" y1="6.7685" x2="24.0266" y2="6.5298" gradientUnits="userSpaceOnUse">
<stop offset="0.497817" stop-color="#D7263D"/>
<stop offset="0.497917" stop-color="#0197F6"/>
</linearGradient>
</defs>
</svg>
