<svg width="208" height="25" viewBox="0 0 208 25" fill="none" xmlns="http://www.w3.org/2000/svg">
<mask id="mask0_101_46" style="mask-type:alpha" maskUnits="userSpaceOnUse" x="0" y="0" width="208" height="25">
<path d="M18.3369 0.347656C18.9563 0.347656 19.4267 0.905006 19.3227 1.5156L18.8637 4.20962C18.7818 4.69018 18.3654 5.04167 17.8779 5.04167H13.0589C12.5737 5.04167 12.1584 5.39008 12.0741 5.86799L8.88857 23.9303C8.80429 24.4081 8.38905 24.7565 7.90377 24.7565H3.98888C3.36713 24.7565 2.89609 24.1952 3.00408 23.5828L6.06713 6.21536C6.17513 5.60305 5.70409 5.04167 5.08233 5.04167H1.00028C0.377962 5.04167 -0.0932112 4.47935 0.0157148 3.86664L0.494651 1.17262C0.579501 0.695342 0.99445 0.347656 1.47921 0.347656H18.3369Z" fill="white"/>
<path d="M32.4848 0.347656C35.0115 0.347656 36.9355 0.927165 38.2567 2.08618C39.578 3.22202 40.2387 4.70556 40.2387 6.53681C40.2387 7.06995 40.1923 7.56833 40.0996 8.03194C39.8214 9.65456 39.1144 11.1034 37.9786 12.3783C37.0629 13.4061 35.8988 14.1928 34.486 14.7385C33.9293 14.9535 33.6204 15.5746 33.8452 16.1275L36.7932 23.3801C37.0605 24.0375 36.5766 24.7565 35.8668 24.7565H31.3359C30.9186 24.7565 30.5452 24.4974 30.3991 24.1066L27.4257 16.1472C27.2898 15.7835 26.9423 15.5424 26.5541 15.5424C26.1029 15.5424 25.7167 15.8661 25.6379 16.3104L24.2863 23.9312C24.2016 24.4087 23.7866 24.7565 23.3017 24.7565H19.3863C18.7644 24.7565 18.2933 24.195 18.4015 23.5827L22.3598 1.17371C22.4442 0.695928 22.8594 0.347656 23.3445 0.347656H32.4848ZM34.0147 8.27533C34.0611 7.90445 34.0843 7.66105 34.0843 7.54515C34.0843 6.80338 33.8409 6.23546 33.3541 5.8414C32.8905 5.42415 32.1951 5.21553 31.2679 5.21553H28.4214C27.9361 5.21553 27.5208 5.56405 27.4366 6.04206L26.711 10.1617C26.6032 10.774 27.0742 11.3352 27.6958 11.3352H30.19C31.2794 11.3352 32.1371 11.0686 32.763 10.5355C33.412 10.0023 33.8293 9.24891 34.0147 8.27533Z" fill="white"/>
<path d="M49.8374 0.347656C50.4592 0.347656 50.9303 0.909197 50.8221 1.52157L48.4564 14.9165C48.3637 15.5192 48.3174 15.9365 48.3174 16.1683C48.3174 17.2346 48.6187 18.0574 49.2214 18.6369C49.8241 19.1932 50.7165 19.4715 51.8987 19.4715C53.2895 19.4715 54.4254 19.0774 55.3062 18.2893C56.1871 17.5012 56.755 16.3769 57.01 14.9165L59.4371 1.17374C59.5215 0.695942 59.9367 0.347656 60.4219 0.347656H64.3367C64.9585 0.347656 65.4296 0.909197 65.3214 1.52157L62.9557 14.9165C62.5617 17.1187 61.7735 18.9847 60.5913 20.5146C59.4323 22.0213 58.0067 23.1456 56.3146 23.8873C54.6456 24.6291 52.8259 25 50.8556 25C48.3058 25 46.2427 24.3394 44.6665 23.0181C43.1134 21.6968 42.3368 19.7843 42.3368 17.2808C42.3368 16.5392 42.4064 15.751 42.5455 14.9165L44.9394 1.17602C45.0228 0.697167 45.4385 0.347656 45.9245 0.347656H49.8374Z" fill="white"/>
<path d="M75.6585 5.04167C75.1714 5.04167 74.7551 5.39272 74.6729 5.8729L74.1461 8.94939C74.0415 9.56024 74.512 10.1182 75.1317 10.1182H80.7143C81.3368 10.1182 81.8081 10.6809 81.6988 11.2937L81.2557 13.7791C81.1706 14.2562 80.7558 14.6036 80.2712 14.6036H73.9837C73.4991 14.6036 73.0843 14.951 72.9992 15.428L72.3823 18.8869C72.273 19.4998 72.7442 20.0625 73.3668 20.0625H79.9847C80.6071 20.0625 81.0782 20.6249 80.9693 21.2376L80.4904 23.9316C80.4055 24.4089 79.9906 24.7565 79.5058 24.7565H66.5845C65.9626 24.7565 65.4916 24.195 65.5998 23.5827L69.558 1.17371C69.6424 0.695928 70.0576 0.347656 70.5428 0.347656H83.4618C84.0841 0.347656 84.5553 0.909981 84.4464 1.52269L83.9674 4.21671C83.8826 4.69399 83.4676 5.04167 82.9829 5.04167H75.6585Z" fill="white"/>
<path d="M85.386 12.5174C85.8032 10.1066 86.6957 7.96249 88.0633 6.08488C89.4541 4.18409 91.1811 2.71214 93.2441 1.66902C95.3072 0.602728 97.5441 0.0695801 99.9548 0.0695801C102.876 0.0695801 105.217 0.77658 106.979 2.19058C108.503 3.39855 109.436 5.00407 109.777 7.00715C109.874 7.57671 109.41 8.0668 108.832 8.0668H104.058C103.64 8.0668 103.279 7.79824 103.061 7.44146C102.75 6.93216 102.317 6.52632 101.763 6.22396C101.021 5.78353 100.106 5.56332 99.016 5.56332C97.092 5.56332 95.4347 6.20078 94.0438 7.4757C92.6762 8.72744 91.8069 10.408 91.436 12.5174C91.3201 13.2128 91.2622 13.8155 91.2622 14.3255C91.2622 16.0408 91.7606 17.3621 92.7573 18.2893C93.7541 19.2165 95.1681 19.6801 96.9993 19.6801C98.4829 19.6801 99.7926 19.3092 100.929 18.5675C101.655 18.0782 102.291 17.4611 102.838 16.7159C103.277 16.1163 102.801 15.3338 102.057 15.3338H97.3468C96.7284 15.3338 96.2582 14.778 96.3607 14.1681L96.7548 11.8218C96.8358 11.3402 97.2527 10.9875 97.741 10.9875H108.638C109.26 10.9875 109.731 11.5487 109.623 12.1609L108.879 16.3852C108.864 16.472 108.838 16.5565 108.799 16.6359C108.107 18.0739 107.129 19.4132 105.866 20.6537C104.591 21.9286 103.073 22.9601 101.311 23.7483C99.5492 24.5364 97.6484 24.9305 95.6085 24.9305C93.4991 24.9305 91.6447 24.5248 90.0452 23.7135C88.469 22.879 87.252 21.72 86.3943 20.2364C85.5598 18.7529 85.1426 17.026 85.1426 15.0556C85.1426 14.3834 85.2237 13.5373 85.386 12.5174Z" fill="white"/>
<path d="M126.785 21.2858C126.706 20.8013 126.288 20.4451 125.797 20.4451H118.148C117.774 20.4451 117.431 20.6539 117.26 20.9864L115.593 24.2152C115.422 24.5477 115.079 24.7565 114.705 24.7565H110.764C110.007 24.7565 109.525 23.9487 109.884 23.2824L121.95 0.873556C122.124 0.549646 122.463 0.347656 122.83 0.347656H128.286C128.768 0.347656 129.181 0.691568 129.269 1.16557L133.419 23.5744C133.533 24.1892 133.061 24.7565 132.436 24.7565H128.196C127.705 24.7565 127.287 24.4004 127.209 23.9158L126.785 21.2858ZM124.784 15.9249C125.398 15.9249 125.867 15.376 125.771 14.7691L125.004 9.90424C124.854 8.94934 123.57 8.7426 123.127 9.60189L120.62 14.4668C120.277 15.1323 120.76 15.9249 121.509 15.9249H124.784Z" fill="white"/>
<path d="M167.088 0.347656C167.71 0.347656 168.181 0.909215 168.073 1.5216L164.114 23.9305C164.03 24.4082 163.615 24.7565 163.129 24.7565H159.216C158.594 24.7565 158.123 24.194 158.232 23.5812L159.568 16.0791C159.767 14.9654 158.254 14.4304 157.708 15.4211L152.849 24.2392C152.673 24.5584 152.337 24.7565 151.973 24.7565H148.586C148.109 24.7565 147.698 24.4194 147.605 23.9514L145.888 15.3013C145.672 14.2151 144.113 14.2329 143.922 15.3237L142.416 23.9289C142.333 24.4074 141.917 24.7565 141.431 24.7565H137.518C136.896 24.7565 136.425 24.195 136.533 23.5827L140.491 1.17371C140.576 0.695928 140.991 0.347656 141.476 0.347656H146.865C147.331 0.347656 147.735 0.669217 147.84 1.12309L150.984 14.7676C151.188 15.6529 152.371 15.8294 152.825 15.0423L161.002 0.848449C161.181 0.538602 161.511 0.347656 161.869 0.347656H167.088Z" fill="white"/>
<path d="M178.51 5.04167C178.023 5.04167 177.607 5.39272 177.524 5.8729L176.998 8.94939C176.893 9.56024 177.364 10.1182 177.983 10.1182H183.566C184.188 10.1182 184.66 10.6809 184.55 11.2937L184.107 13.7791C184.022 14.2562 183.607 14.6036 183.123 14.6036H176.835C176.351 14.6036 175.936 14.951 175.851 15.428L175.234 18.8869C175.125 19.4998 175.596 20.0625 176.218 20.0625H182.836C183.459 20.0625 183.93 20.6249 183.821 21.2376L183.342 23.9316C183.257 24.4089 182.842 24.7565 182.357 24.7565H169.436C168.814 24.7565 168.343 24.195 168.451 23.5827L172.41 1.17371C172.494 0.695928 172.909 0.347656 173.394 0.347656H186.313C186.936 0.347656 187.407 0.909981 187.298 1.52269L186.819 4.21671C186.734 4.69399 186.319 5.04167 185.834 5.04167H178.51Z" fill="white"/>
<path d="M196.756 25C194.114 25 191.958 24.4321 190.289 23.2962C188.643 22.1372 187.82 20.503 187.82 18.3936C187.82 18.3786 187.82 18.363 187.821 18.3469C187.828 17.8374 188.275 17.4548 188.785 17.4548H192.997C193.58 17.4548 194.011 17.964 194.154 18.5296C194.253 18.923 194.437 19.2601 194.705 19.541C195.192 20.051 195.933 20.306 196.93 20.306C197.834 20.306 198.541 20.1089 199.051 19.7149C199.584 19.3208 199.851 18.7645 199.851 18.0459C199.851 17.3041 199.515 16.7014 198.843 16.2378C198.194 15.7742 197.174 15.2527 195.783 14.6732C194.438 14.1168 193.337 13.5953 192.48 13.1085C191.645 12.5985 190.915 11.9147 190.289 11.057C189.663 10.1994 189.35 9.12146 189.35 7.82337C189.327 6.22392 189.721 4.8331 190.532 3.6509C191.344 2.46871 192.468 1.56467 193.905 0.938802C195.342 0.312934 196.988 0 198.843 0C200.512 0 201.995 0.266574 203.293 0.799722C204.591 1.30969 205.6 2.06305 206.318 3.05981C207.037 4.03338 207.396 5.1924 207.396 6.53686C207.396 6.97654 207.035 7.30181 206.595 7.30181H201.453C201.24 7.30181 201.068 7.0977 201.068 6.88456C201.068 6.23551 200.836 5.71395 200.373 5.31989C199.932 4.90264 199.318 4.69402 198.53 4.69402C197.695 4.69402 197.011 4.90264 196.478 5.31989C195.968 5.71395 195.713 6.25869 195.713 6.9541C195.713 7.64951 196.038 8.24061 196.687 8.7274C197.336 9.19101 198.344 9.73574 199.712 10.3616C201.08 10.9875 202.192 11.567 203.05 12.1001C203.931 12.6333 204.684 13.3519 205.31 14.2559C205.936 15.1368 206.249 16.2262 206.249 17.5243C206.249 18.9615 205.866 20.248 205.101 21.3839C204.336 22.5197 203.235 23.4121 201.798 24.0612C200.361 24.6871 198.68 25 196.756 25Z" fill="white"/>
</mask>
<g mask="url(#mask0_101_46)">
<path d="M214.596 -0.937628L-20.1932 -21.7822L-33.7354 29.1553L201.054 49.9999L214.596 -0.937628Z" fill="url(#paint0_linear_101_46)"/>
</g>
<defs>
<linearGradient id="paint0_linear_101_46" x1="89.2643" y1="16.3583" x2="78.7133" y2="12.3901" gradientUnits="userSpaceOnUse">
<stop offset="0.497817" stop-color="#D7263D"/>
<stop offset="0.497917" stop-color="#0197F6"/>
</linearGradient>
</defs>
</svg>
